HIERARCHY
ROOT Hip
{
	OFFSET 0 0 0
	CHANNELS 6 Xposition Yposition Zposition Zrotation Yrotation Xrotation
	JOINT ShoulderCenter
	{
		OFFSET 0 43.63 0
		CHANNELS 3 Zrotation Yrotation Xrotation
		JOINT Head
		{
			OFFSET 0 18.49 0
			CHANNELS 3 Zrotation Yrotation Xrotation
			End Site
			{
				OFFSET 0.0 8.91 0.0
			}
		}
		JOINT ShoulderLeft
		{
			OFFSET -14 0 0
			CHANNELS 3 Zrotation Yrotation Xrotation
			JOINT ElbowLeft
			{
				OFFSET -25 0 0
				CHANNELS 3 Zrotation Yrotation Xrotation
				JOINT WristLeft
				{
					OFFSET -23 0 0
					CHANNELS 3 Zrotation Yrotation Xrotation
					End Site
					{
						OFFSET -8.32 0.0 0.0
					}
				}
			}
		}
		JOINT ShoulderRight
		{
			OFFSET 14 0 0
			CHANNELS 3 Zrotation Yrotation Xrotation
			JOINT ElbowRight
			{
				OFFSET 25 0 0
				CHANNELS 3 Zrotation Yrotation Xrotation
				JOINT WristRight
				{
					OFFSET 23 0 0
					CHANNELS 3 Zrotation Yrotation Xrotation
					End Site
					{
						OFFSET 8.32 0.0 0.0
					}
				}
			}
		}
	}
	JOINT HipLeft
	{
		OFFSET -9.52 0 0
		CHANNELS 3 Zrotation Yrotation Xrotation
		JOINT KneeLeft
		{
			OFFSET 0 -37.32 0
			CHANNELS 3 Zrotation Yrotation Xrotation
			JOINT AnkleLeft
			{
				OFFSET 0 -34.6 0
				CHANNELS 3 Zrotation Yrotation Xrotation
				End Site
				{
					OFFSET 0.0 0.0 8.91
				}
			}
		}
	}
	JOINT HipRight
	{
		OFFSET 9.52 0 0
		CHANNELS 3 Zrotation Yrotation Xrotation
		JOINT KneeRight
		{
			OFFSET 0 -37.32 0
			CHANNELS 3 Zrotation Yrotation Xrotation
			JOINT AnkleRight
			{
				OFFSET 0 -34.6 0
				CHANNELS 3 Zrotation Yrotation Xrotation
				End Site
				{
					OFFSET 0.0 0.0 8.91
				}
			}
		}
	}
}
MOTION
Frames: 23
Frame Time: 0.033333
18.8304 -70.3116 -246.104 -0.952507 -0.109254 2.85079 -5.30167 -1.69358 7.38917 0 0 0 81.9529 23.7018 37.2761 -1.65226e-005 70.2654 -2.56307e-005 0 0 0 -71.4908 -25.0744 33.962 -7.03352e-006 -66.6943 -3.55381e-006 0 0 0 6.95016 -20.7477 -113.696 -4.01226 7.20163 152.187 0 0 0 -14.5988 14.8392 -117.167 2.09483 -6.87703 153.676 0 0 0 
18.8323 -70.3105 -246.103 -1.12269 -0.0720748 2.91745 -5.04158 -1.69808 7.42545 0 0 0 81.8097 23.817 37.5116 1.27871e-006 70.5003 -5.59636e-007 0 0 0 -71.6732 -25.1656 33.9195 -1.06751e-005 -67.1945 1.97821e-006 0 0 0 7.08916 -20.5293 -113.712 -3.9695 7.16538 152.169 0 0 0 -14.5008 14.7902 -117.248 2.08863 -6.86577 153.687 7.94115e-007 -4.84034e-007 -6.70626e-007 
18.8337 -70.3056 -246.098 -1.21419 -0.106453 2.95797 -4.98753 -1.62687 7.46938 5.59052e-008 8.37708e-008 -2.37929e-007 81.8196 23.8814 37.4478 7.55365e-006 70.4785 2.69917e-006 0 0 0 -71.6724 -25.2616 33.9138 1.84684e-005 -67.6715 -6.03695e-006 1.16927e-006 5.47244e-007 9.38324e-007 7.29643 -20.2719 -113.74 -3.90495 7.14512 152.15 0 0 0 -14.4577 14.8454 -117.318 2.10367 -6.87768 153.692 0 0 0 
18.8355 -70.3024 -246.098 -1.30491 -0.104008 3.03023 -5.038 -1.51492 7.54898 0 0 0 81.7053 23.8227 37.2773 -1.50032e-005 70.5912 -9.76355e-006 -1.24671e-006 -6.91783e-007 1.04119e-006 -71.5361 -25.4136 34.068 4.56263e-006 -68.1874 -9.84331e-006 0 0 0 8.02835 -19.9358 -114.039 -3.75955 7.19019 152.232 0 0 0 -14.5016 14.7653 -117.419 2.07915 -6.87822 153.717 0 0 0 
18.8356 -70.2989 -246.098 -1.42728 -0.140686 3.15914 -5.05 -1.53387 7.47537 0 0 0 81.9266 23.981 36.159 -7.88125e-006 69.7033 -6.73105e-006 0 0 0 -71.3964 -25.3559 34.1307 7.17723e-006 -68.6758 -1.42595e-005 0 0 0 8.20957 -19.336 -114.079 -3.61551 7.08199 152.286 0 0 0 -14.4344 14.8255 -117.578 2.09989 -6.88564 153.742 7.84924e-007 -4.88794e-007 -6.66258e-007 
18.8359 -70.2901 -246.1 -1.53287 -0.260718 3.27689 -5.2143 -1.57526 7.57192 2.40985e-008 7.31608e-008 -2.13003e-007 82.2264 24.2433 36.1221 -1.21535e-005 69.6056 -3.32576e-006 0 0 0 -71.0725 -25.2805 34.2799 4.59312e-006 -69.7025 -9.62182e-006 0 0 0 8.47798 -18.8059 -114.257 -3.49713 7.03366 152.219 0 0 0 -15.4031 16.067 -117.663 2.21762 -7.28966 153.937 0 0 0 
18.8368 -70.2801 -246.101 -1.75035 -0.296242 3.44226 -5.0712 -1.71856 7.54752 2.11738e-008 6.19498e-008 -2.04486e-007 82.3943 24.5551 36.3575 -5.13223e-006 69.3409 -5.01408e-006 0 0 0 -71.1515 -25.1693 35.2908 1.76102e-005 -70.6592 -1.32111e-005 9.77844e-007 3.20447e-007 9.71299e-007 8.96312 -18.1266 -114.534 -3.34117 6.96701 152.16 0 0 0 -15.201 16.0184 -117.77 2.21511 -7.24592 154.013 6.94522e-007 -4.43293e-007 -6.05102e-007 
18.842 -70.2801 -246.101 -1.83582 -0.311356 3.51107 -4.99939 -1.76497 7.51342 0 0 0 82.4343 24.6038 36.0874 -9.80081e-006 69.1228 -6.66379e-006 0 0 0 -71.1478 -25.1473 35.3227 1.12665e-005 -70.7032 -1.01358e-005 0 0 0 9.34324 -17.8485 -114.683 -3.25331 6.97398 152.159 0 0 0 -15.1441 15.9716 -117.816 2.20472 -7.2259 154.053 0 0 0 
18.8425 -70.2801 -246.1 -1.95057 -0.301322 3.61837 -4.86053 -1.89663 7.6029 2.31295e-008 5.13359e-008 -1.905e-007 82.5097 24.8321 36.2107 5.21551e-006 68.8733 6.18278e-006 0 0 0 -71.1145 -25.2837 36.1481 -6.05466e-006 -70.877 1.87912e-006 0 0 0 9.96583 -17.6279 -114.939 -3.14697 7.02445 152.23 -1.75133e-007 2.35809e-007 -6.43026e-007 -14.8237 15.5345 -117.911 2.15843 -7.09508 154.024 7.25619e-007 -4.69048e-007 -6.09952e-007 
18.8771 -70.2849 -246.06 -1.97215 -0.270431 3.62238 -4.81358 -1.76226 7.80864 2.28324e-008 6.13541e-008 -1.7802e-007 82.1316 24.7134 35.0182 -1.29867e-006 67.3501 3.45549e-006 -1.49837e-006 -9.56118e-007 9.42732e-007 -71.1975 -25.5322 35.6439 1.00896e-005 -70.9076 -9.81478e-006 0 0 0 10.1464 -17.6597 -115.009 -3.1199 7.06214 152.306 0 0 0 -14.7286 14.971 -117.971 2.06561 -6.95923 154.014 0 0 0 
18.9152 -70.2885 -246.06 -1.91969 -0.150149 3.68376 -4.90553 -1.97049 8.26028 0 0 0 82.1632 25.1883 31.3107 -6.79517e-007 63.4733 5.83901e-007 0 0 0 -71.0521 -25.8478 35.9406 1.73891e-006 -70.9488 1.48141e-006 8.81562e-007 3.1339e-007 9.8607e-007 10.6944 -17.6193 -115.299 -3.06186 7.17808 152.289 -1.56301e-007 2.6735e-007 -6.37665e-007 -15.0851 14.4354 -118.079 1.94283 -6.9079 153.981 0 0 0 
18.9217 -70.2903 -246.06 -1.91217 -0.151504 3.71518 -4.94294 -2.08043 8.46406 1.95925e-008 4.95247e-008 -1.33763e-007 82.2164 25.4052 31.3725 -8.72518e-006 63.5394 -1.34151e-005 4.31429e-008 8.70287e-007 1.88165e-007 -70.9754 -25.8498 35.9621 1.4624e-005 -71.0863 -2.42794e-005 0 0 0 11.0167 -17.5302 -115.424 -3.02022 7.22998 152.252 -1.48551e-007 2.83374e-007 -6.38041e-007 -15.1958 14.2947 -118.128 1.90932 -6.89888 153.974 0 0 0 
18.9613 -70.315 -246.047 -1.83065 -0.103212 3.80174 -4.86704 -2.09947 8.53933 2.80664e-008 5.35472e-008 -1.23918e-007 81.9349 25.1554 35.0162 -9.99654e-006 67.7247 -9.84211e-006 -1.49112e-006 -9.60543e-007 9.26924e-007 -71.0626 -25.9603 36.026 1.22386e-005 -71.2034 -1.07479e-005 0 0 0 11.4669 -18.0109 -115.656 -3.0653 7.40643 152.343 0 0 0 -15.5533 13.8546 -118.258 1.80293 -6.88704 153.914 0 0 0 
18.9771 -70.3261 -246.047 -1.78661 -0.102505 3.80182 -4.86993 -2.14301 8.54601 0 0 0 81.8973 25.1043 34.7323 4.91587e-006 68.5354 2.08285e-006 0 0 0 -71.0861 -25.9407 35.9972 -1.55254e-006 -71.2065 -3.11293e-006 0 0 0 11.6897 -18.2741 -115.697 -3.09701 7.50159 152.344 0 0 0 -15.823 13.6719 -118.292 1.75817 -6.92438 153.794 0 0 0 
19.0114 -70.3304 -246.029 -1.69823 -0.0449028 3.78058 -4.83238 -2.21357 8.57579 0 0 0 81.9358 25.0478 35.5237 -7.35303e-006 69.5573 -7.79256e-006 0 0 0 -71.2312 -25.9677 35.832 -4.13486e-006 -70.8145 7.82622e-007 0 0 0 11.8163 -18.8327 -115.728 -3.19057 7.64075 152.364 -4.96772e-008 2.33129e-007 -6.05816e-007 -16.2744 13.2909 -118.32 1.65333 -6.947 153.692 0 0 0 
19.0202 -70.3314 -246.014 -1.67457 -0.0903231 3.7524 -4.71436 -2.18727 8.53773 4.7136e-008 5.2545e-008 -1.26227e-007 81.8562 24.9705 36.1653 6.69461e-006 69.9255 -4.40788e-007 0 0 0 -71.3895 -25.9187 36.1895 1.28486e-006 -70.5237 -3.91138e-006 0 0 0 11.8941 -18.9852 -115.706 -3.20788 7.68516 152.376 -3.6005e-008 2.25061e-007 -6.01009e-007 -16.3203 13.2961 -118.309 1.64835 -6.95719 153.693 0 0 0 
19.0371 -70.3314 -246.014 -1.59717 -0.222675 3.68554 -4.53994 -2.21757 8.29748 0 0 0 81.7149 24.7273 36.2146 4.22594e-007 69.9588 -3.68868e-006 0 0 0 -71.6232 -25.6398 36.288 1.48281e-006 -70.4946 -9.67767e-007 8.33275e-007 3.78244e-007 9.90123e-007 11.8569 -19.1723 -115.632 -3.22934 7.70795 152.443 0 0 0 -16.435 13.4115 -118.286 1.65812 -7.00321 153.694 4.72702e-007 1.29477e-007 -7.54183e-007 
19.0486 -70.3333 -246.014 -1.52951 -0.228063 3.62748 -4.50186 -2.40081 8.04939 0 0 0 81.8129 24.6966 36.946 5.93775e-006 70.116 3.54829e-006 0 0 0 -71.5756 -25.3639 35.5739 -6.50524e-006 -70.2041 1.24433e-006 0 0 0 11.7166 -19.4227 -115.593 -3.28342 7.73479 152.466 -7.05167e-009 1.93364e-007 -5.92099e-007 -16.5497 13.3841 -118.23 1.63421 -7.00698 153.727 4.73388e-007 1.24362e-007 -7.50817e-007 
19.0574 -70.3439 -246.017 -1.35069 -0.240395 3.46869 -4.57663 -2.48397 7.84765 8.04922e-008 3.01499e-008 -1.82528e-007 81.7374 24.6392 37.5641 -3.44854e-007 70.1353 2.45167e-006 0 0 0 -71.4607 -25.1963 35.5413 4.70139e-006 -70.066 -8.31015e-006 0 0 0 11.2373 -19.7564 -115.416 -3.37009 7.72761 152.509 0 0 0 -16.744 13.386 -118.075 1.59164 -6.99921 153.863 0 0 0 
19.0588 -70.3474 -246.017 -1.27087 -0.229063 3.37186 -4.59291 -2.57948 7.84822 0 0 0 81.6931 24.7529 37.8204 -6.61988e-006 70.1261 -1.36726e-005 0 0 0 -71.468 -25.1931 35.9127 1.21656e-005 -69.9357 -1.07455e-005 0 0 0 10.9686 -19.917 -115.304 -3.42806 7.72676 152.464 0 0 0 -16.8293 13.3685 -118.002 1.56144 -6.98176 153.974 0 0 0 
19.0705 -70.3519 -246.017 -1.14904 -0.23205 3.2516 -4.67194 -2.48348 7.74155 0 0 0 81.5792 24.5379 37.9446 -1.81122e-005 70.3437 -1.61429e-005 -1.28047e-006 -6.93655e-007 1.03058e-006 -71.6008 -25.2099 36.1716 8.81265e-006 -69.5133 -3.64503e-006 0 0 0 10.3162 -20.2363 -115.082 -3.54837 7.68683 152.439 0 0 0 -16.9139 13.2683 -117.884 1.51759 -6.94653 154.058 0 0 0 
19.0746 -70.369 -246.011 -0.998523 -0.211289 3.11596 -4.8386 -2.41886 7.41788 8.60012e-008 3.5663e-008 -2.29507e-007 81.3867 24.0034 38.0594 -4.19456e-006 70.596 -5.91805e-006 0 0 0 -71.8537 -24.6071 35.9807 7.59212e-007 -69.5784 -1.31179e-006 8.96644e-007 4.41277e-007 1.00523e-006 9.27324 -20.7843 -114.705 -3.77271 7.6329 152.31 0 0 0 -17.0146 13.1458 -117.82 1.48123 -6.9208 154.082 4.92611e-007 9.63533e-008 -7.33963e-007 
19.0807 -70.3801 -245.992 -0.859709 -0.253892 2.95986 -4.99344 -2.32516 7.25082 0 0 0 81.4207 23.6931 38.2584 -8.12158e-006 70.7152 -1.02173e-005 0 0 0 -71.9714 -24.3979 35.8859 2.0242e-006 -69.4089 -7.79809e-006 0 0 0 8.13965 -21.3079 -114.236 -3.99237 7.55354 152.214 0 0 0 -17.0872 13.0712 -117.738 1.45606 -6.90301 154.098 0 0 0 
